# xmcd
#
# Track frame offsets:
#	150
#	25468
#	34803
#	43372
#	56211
#	70241
#	84219
#	92053
#	107555
#	121178
#	132943
#	153431
#	166868
#	182286
#	196662
#	210236
#	223776
#	235252
#	249026
#	262165
#	275170
#	289252
#
# Disc length: 4069 seconds
#
# Revision: 0
# Processed by: cddbd v1.5.2PL0 Copyright (c) Steve Scherf et al.
# Submitted via: EZCDAudioConverter 1.3.4.1
#
DISCID=3a0fe316
DTITLE=Leadbelly - The Rough Guide To Blues Legends
DYEAR=2010
DGENRE=
TTITLE0=The Bourgeois Blues
TTITLE1=Midnight Special
TTITLE2=Irene Goodnight
TTITLE3=Frankie And Albert (Part One)
TTITLE4=Frankie And Albert (Part Two)
TTITLE5=Blind Lemon (My Friend Blind Lemon)
TTITLE6=Pick A Bale Of Cotton
TTITLE7=Fannin' Street
TTITLE8=Gallis Pole
TTITLE9=Rock Island Line
TTITLE10=How Long Blues
TTITLE11=Easy Rider/C.C. Rider
TTITLE12=Backwater Blues
TTITLE13=It's Tight Like That
TTITLE14=Death Letter Blues (Part One)
TTITLE15=Death Letter Blues (Part Two)
TTITLE16=In The Evening When The Sun Goes Down
TTITLE17=Matchbox Blues
TTITLE18=Packin' Trunk Blues
TTITLE19=Good Morning Blues
TTITLE20=Alberta
TTITLE21=Leaving Blues
EXTD=
EXTT0=
EXTT1=
EXTT2=
EXTT3=
EXTT4=
EXTT5=
EXTT6=
EXTT7=
EXTT8=
EXTT9=
EXTT10=
EXTT11=
EXTT12=
EXTT13=
EXTT14=
EXTT15=
EXTT16=
EXTT17=
EXTT18=
EXTT19=
EXTT20=
EXTT21=
PLAYORDER=
